# xmcd CD database file
#
# Track frame offsets:
#	150
#	75782
#	166893
#	216089
#
# Disc length: 2934 seconds
#
# Revision: 0
# Processed by: cddbd v1.5.1PL0 Copyright (c) Steve Scherf et al.
# Submitted via: CDex 1.51
#
DISCID=220b7404
DTITLE=Dexter Gordon - Live in Copenhagen
DYEAR=1900
DGENRE=Jazz
TTITLE0=Stella_by_Starlight
TTITLE1=Satin_Doll
TTITLE2='round_Midnight
TTITLE3=Sonnymoon_for_Two
EXTD=
EXTT0=
EXTT1=
EXTT2=
EXTT3=
PLAYORDER=
